<mxfile host="app.diagrams.net" modified="2022-10-05T03:37:12.225Z" agent="5.0 (Macintosh; Intel Mac OS X 10_15_7) AppleWebKit/537.36 (KHTML, like Gecko) Chrome/106.0.0.0 Safari/537.36" etag="2SaIDOuMt9anlKuUHse1" version="20.4.0" type="github">
  <diagram id="C5RBs43oDa-KdzZeNtuy" name="Page-1">
    <mxGraphModel dx="685" dy="478" grid="1" gridSize="10" guides="1" tooltips="1" connect="1" arrows="1" fold="1" page="1" pageScale="1" pageWidth="827" pageHeight="1169" math="0" shadow="0">
      <root>
        <mxCell id="WIyWlLk6GJQsqaUBKTNV-0" />
        <mxCell id="WIyWlLk6GJQsqaUBKTNV-1" parent="WIyWlLk6GJQsqaUBKTNV-0" />
        <mxCell id="OIloI1zcb7YGLm7qGtoo-18" style="edgeStyle=orthogonalEdgeStyle;rounded=0;orthogonalLoop=1;jettySize=auto;html=1;fontSize=8;" edge="1" parent="WIyWlLk6GJQsqaUBKTNV-1" source="OIloI1zcb7YGLm7qGtoo-12" target="OIloI1zcb7YGLm7qGtoo-13">
          <mxGeometry relative="1" as="geometry" />
        </mxCell>
        <mxCell id="OIloI1zcb7YGLm7qGtoo-20" value="send request" style="edgeLabel;html=1;align=center;verticalAlign=middle;resizable=0;points=[];fontSize=8;" vertex="1" connectable="0" parent="OIloI1zcb7YGLm7qGtoo-18">
          <mxGeometry x="-0.3636" relative="1" as="geometry">
            <mxPoint x="8" as="offset" />
          </mxGeometry>
        </mxCell>
        <mxCell id="OIloI1zcb7YGLm7qGtoo-12" value="smart contract" style="aspect=fixed;html=1;points=[];align=center;image;fontSize=12;image=img/lib/azure2/general/Code.svg;" vertex="1" parent="WIyWlLk6GJQsqaUBKTNV-1">
          <mxGeometry x="50" y="210" width="64" height="52" as="geometry" />
        </mxCell>
        <mxCell id="OIloI1zcb7YGLm7qGtoo-19" value="select" style="edgeStyle=orthogonalEdgeStyle;rounded=0;orthogonalLoop=1;jettySize=auto;html=1;entryX=0.005;entryY=0.63;entryDx=0;entryDy=0;entryPerimeter=0;fontSize=8;" edge="1" parent="WIyWlLk6GJQsqaUBKTNV-1" source="OIloI1zcb7YGLm7qGtoo-13" target="OIloI1zcb7YGLm7qGtoo-14">
          <mxGeometry relative="1" as="geometry" />
        </mxCell>
        <mxCell id="OIloI1zcb7YGLm7qGtoo-13" value="Oracle cluster" style="sketch=0;outlineConnect=0;fontColor=#232F3E;gradientColor=none;fillColor=#6666FF;strokeColor=none;dashed=0;verticalLabelPosition=bottom;verticalAlign=top;align=center;html=1;fontSize=12;fontStyle=0;aspect=fixed;pointerEvents=1;shape=mxgraph.aws4.cluster;" vertex="1" parent="WIyWlLk6GJQsqaUBKTNV-1">
          <mxGeometry x="180" y="197" width="78" height="78" as="geometry" />
        </mxCell>
        <mxCell id="OIloI1zcb7YGLm7qGtoo-17" value="" style="group" vertex="1" connectable="0" parent="WIyWlLk6GJQsqaUBKTNV-1">
          <mxGeometry x="288" y="206" width="90" height="66" as="geometry" />
        </mxCell>
        <mxCell id="OIloI1zcb7YGLm7qGtoo-14" value="" style="sketch=0;html=1;dashed=0;whitespace=wrap;fillColor=#6666FF;strokeColor=#ffffff;points=[[0.005,0.63,0],[0.1,0.2,0],[0.9,0.2,0],[0.5,0,0],[0.995,0.63,0],[0.72,0.99,0],[0.5,1,0],[0.28,0.99,0]];shape=mxgraph.kubernetes.icon;prIcon=node;fontSize=13;gradientColor=none;fillStyle=auto;" vertex="1" parent="OIloI1zcb7YGLm7qGtoo-17">
          <mxGeometry x="20" width="50" height="48" as="geometry" />
        </mxCell>
        <mxCell id="OIloI1zcb7YGLm7qGtoo-16" value="&lt;font style=&quot;font-size: 8px;&quot;&gt;signal Oracle node&lt;/font&gt;" style="text;html=1;resizable=0;autosize=1;align=center;verticalAlign=middle;points=[];fillColor=none;strokeColor=none;rounded=0;fillStyle=auto;fontSize=13;" vertex="1" parent="OIloI1zcb7YGLm7qGtoo-17">
          <mxGeometry y="36" width="90" height="30" as="geometry" />
        </mxCell>
      </root>
    </mxGraphModel>
  </diagram>
</mxfile>
